<svg xmlns="http://www.w3.org/2000/svg" xmlns:xlink="http://www.w3.org/1999/xlink" viewBox="0 0 1920 1080"><defs><style>.a{clip-path:url(#b);}.b{fill:#9aa879;}.b,.k{stroke:#707070;}.c{fill:#9696a0;}.d{fill:#c8f1de;}.e,.g,.i,.l{fill:#fff;}.f{fill:#832727;}.g,.h,.i,.j,.l,.m{stroke:#000;}.g,.i,.l{stroke-width:7px;}.h,.j{font-size:45px;}.h,.j,.m{font-family:AmericanTypewriter, American Typewriter;}.i{opacity:0.998;}.j{opacity:0.321;}.k,.o{fill:none;}.l{opacity:0.567;}.m{font-size:40px;}.n{stroke:none;}</style><clipPath id="b"><rect width="1920" height="1080"/></clipPath></defs><g id="a" class="a"><rect class="e" width="1920" height="1080"/><g class="b"><rect class="n" width="1920" height="1080"/><rect class="o" x="0.5" y="0.5" width="1919" height="1079"/></g><g transform="translate(732 282.574)"><path class="c" d="M239.418,139.5H49.667v44.494H178.978c9.315,0,16.165,6.375,16.165,14.238v56.953c0,7.863-6.85,14.238-16.165,14.238H49.667v49.834H239.418V139.5Z" transform="translate(44.071 100.649)"/><path class="d" d="M155.667,319.257h46.278V198.233c0-7.863,8.235-14.238,17.529-14.238h67.313c9.293,0,16.128,6.375,16.128,14.238V319.257h46.278V139.5H155.667V319.257Z" transform="translate(157.215 100.649)"/><rect class="e" width="126" height="37" transform="translate(101.99 309.989)"/><rect class="e" width="58" height="110" transform="translate(373.684 309.782)"/><path class="d" d="M92.076,81.9c0-7.953,7.906-14.4,16.828-14.4h64.623c8.922,0,15.483,6.448,15.483,14.4V204.312h42.409V22.5H49.667V204.312H92.076V81.9Z" transform="translate(52.071 12.357)"/><path class="c" d="M351.909,153.909H220.369c-9.424,0-17.775-6.448-17.775-14.4V81.9c0-7.953,8.351-14.4,17.775-14.4h131.54v-45H155.667V204.312H351.909Z" transform="translate(157.215 10.357)"/><rect class="e" width="125" height="38" transform="translate(383.683 99.85)"/><rect class="e" width="50" height="117" transform="translate(165.098 99.954)"/><path class="f" d="M567.776,256.5H35.4c-10.7,0-19.4,11.509-19.4,25.659s8.7,25.659,19.4,25.659H567.776c10.7,0,19.4-11.509,19.4-25.659S578.473,256.5,567.776,256.5Z" transform="translate(0 184.608)"/><path d="M552.4,420.059H535.479V20.639c0-7.808-6.6-14.139-15.571-14.139H85.3c-8.972,0-16.923,6.331-16.923,14.139v399.42h-17.6c-28,0-50.772,19.821-50.772,44.184s22.776,44.184,50.772,44.184H552.4c28,0,50.772-19.821,50.772-44.184S580.4,420.059,552.4,420.059Zm0,60.09H50.772c-10.079,0-18.278-7.135-18.278-15.906s8.2-15.906,18.278-15.906H552.4c10.079,0,18.278,7.135,18.278,15.906S562.481,480.148,552.4,480.148ZM100.868,34.778h182.78v178.5H241V93.1c0-7.808-6.6-14.139-15.571-14.139H160.44c-8.972,0-16.923,6.331-16.923,14.139V213.279H100.868Zm107.637,178.5H176.011V107.239h32.494Zm107.637-178.5H502.984V78.961H377.746c-8.972,0-16.923,6.331-16.923,14.139v56.555c0,7.808,7.951,14.139,16.923,14.139H502.984v49.486H316.143Zm186.842,72.461v28.278H393.316V107.239Zm-77.174,312.82H393.316V314.018h32.494Zm77.174,0H458.3V299.879c0-7.808-6.6-14.139-15.571-14.139H377.746c-8.972,0-16.923,6.331-16.923,14.139V420.059h-44.68v-178.5H502.984v178.5ZM100.868,342.3V314.018H208.505V342.3Zm0,28.278H225.429c8.972,0,15.571-6.331,15.571-14.139V299.879c0-7.808-6.6-14.139-15.571-14.139H100.868V241.557h182.78v178.5H100.868V370.573Z" transform="translate(0 0)"/></g><g class="g" transform="translate(842 878)"><rect class="n" width="402" height="93" rx="23"/><rect class="o" x="3.5" y="3.5" width="395" height="86" rx="19.5"/></g><text class="h" transform="translate(908 939)"><tspan x="0" y="0">Colourise Me</tspan></text><g class="i" transform="translate(758 42)"><rect class="n" width="551" height="83" rx="12"/><rect class="o" x="3.5" y="3.5" width="544" height="76" rx="8.5"/></g><g class="g" transform="translate(982 146)"><circle class="n" cx="57" cy="57" r="57"/><circle class="o" cx="57" cy="57" r="53.5"/></g><text class="h" transform="translate(999 218)"><tspan x="0" y="0">GO!</tspan></text><text class="j" transform="translate(872 99)"><tspan x="0" y="0">Search by Hex #</tspan></text><line class="k" x1="241" y1="48" transform="translate(631.5 301.5)"/><g class="l" transform="translate(255 161)"><rect class="n" width="363" height="141" rx="11"/><rect class="o" x="3.5" y="3.5" width="356" height="134" rx="7.5"/></g><text class="h" transform="translate(335 247)"><tspan x="0" y="0">#C8F1DE</tspan></text><g class="l" transform="translate(1583 998)"><rect class="n" width="337" height="82" rx="11"/><rect class="o" x="3.5" y="3.5" width="330" height="75" rx="7.5"/></g><text class="m" transform="translate(1658 1052)"><tspan x="0" y="0">#9AA879</tspan></text></g></svg>